<svg width="1400" height="900" viewBox="0 0 1400 900" fill="none" xmlns="http://www.w3.org/2000/svg">
  <defs>
    <linearGradient id="bg" x1="210" y1="120" x2="1190" y2="780" gradientUnits="userSpaceOnUse">
      <stop offset="0" stop-color="#081113"/>
      <stop offset="1" stop-color="#0F1E22"/>
    </linearGradient>
    <linearGradient id="panel" x1="270" y1="160" x2="1130" y2="760" gradientUnits="userSpaceOnUse">
      <stop offset="0" stop-color="#0E1C20"/>
      <stop offset="1" stop-color="#14282E"/>
    </linearGradient>
    <linearGradient id="neon" x1="512" y1="164" x2="889" y2="737" gradientUnits="userSpaceOnUse">
      <stop offset="0" stop-color="#0DFF9B"/>
      <stop offset="1" stop-color="#00C66A"/>
    </linearGradient>
    <linearGradient id="glow" x1="0" y1="0" x2="1" y2="1">
      <stop offset="0" stop-color="#00FF88" stop-opacity="0.9"/>
      <stop offset="1" stop-color="#0FE7FF" stop-opacity="0.55"/>
    </linearGradient>
    <filter id="shadow" x="-20%" y="-20%" width="140%" height="140%">
      <feDropShadow dx="0" dy="22" stdDeviation="28" flood-color="#000000" flood-opacity="0.35"/>
    </filter>
    <filter id="softGlow" x="-40%" y="-40%" width="180%" height="180%">
      <feGaussianBlur stdDeviation="26" result="blur"/>
      <feColorMatrix in="blur" type="matrix"
        values="1 0 0 0 0
                0 1 0 0 0.8
                0 0 1 0 0.4
                0 0 0 0.45 0"/>
    </filter>
    <style>
      .title { font: 700 34px 'Segoe UI', Arial, sans-serif; fill: #E9FFF4; }
      .sub { font: 500 18px 'Segoe UI', Arial, sans-serif; fill: #97B8AD; }
      .label { font: 700 16px 'Segoe UI', Arial, sans-serif; fill: #DAFFF0; letter-spacing: 1px; }
      .small { font: 500 14px 'Segoe UI', Arial, sans-serif; fill: #95B1A8; }
      .metric { font: 800 56px 'Segoe UI', Arial, sans-serif; fill: #F8FFF9; }
      .metric2 { font: 700 24px 'Segoe UI', Arial, sans-serif; fill: #D7FFF0; }
      .pill { font: 700 14px 'Segoe UI', Arial, sans-serif; fill: #082015; }
      .chip { font: 600 13px 'Segoe UI', Arial, sans-serif; fill: #D7FFF0; }
      .channel { font: 700 13px 'Segoe UI', Arial, sans-serif; fill: #082015; }
      .mini { font: 600 12px 'Segoe UI', Arial, sans-serif; fill: #D5EEE3; letter-spacing: 1px; }
    </style>
  </defs>

  <rect width="1400" height="900" fill="none"/>

  <g filter="url(#softGlow)">
    <circle cx="700" cy="450" r="250" fill="url(#glow)" opacity="0.32"/>
  </g>

  <g filter="url(#shadow)">
    <rect x="260" y="140" width="880" height="620" rx="34" fill="url(#bg)"/>
    <rect x="278" y="158" width="844" height="584" rx="28" fill="url(#panel)" stroke="#20363C" stroke-width="2"/>
  </g>

  <circle cx="320" cy="198" r="7" fill="#FF5F57"/>
  <circle cx="346" cy="198" r="7" fill="#FEBB2E"/>
  <circle cx="372" cy="198" r="7" fill="#28C840"/>

  <text x="330" y="244" class="title">Fraud Shield AI</text>
  <text x="330" y="272" class="sub">Unified real-time scam detection across every high-risk attack surface</text>

  <rect x="330" y="306" width="155" height="36" rx="18" fill="#D2FFE8"/>
  <text x="407" y="329" text-anchor="middle" class="pill">LIVE PROTECTION</text>

  <rect x="505" y="306" width="176" height="36" rx="18" fill="#0F2629" stroke="#244148"/>
  <text x="593" y="329" text-anchor="middle" class="chip">Threat Scoring Active</text>

  <g transform="translate(515 250)">
    <path d="M185 40L312 88V237C312 334 240 401 185 426C130 401 58 334 58 237V88L185 40Z" fill="#0D1719" stroke="url(#neon)" stroke-width="8"/>
    <path d="M185 82L278 117V237C278 301 233 351 185 377C137 351 92 301 92 237V117L185 82Z" fill="url(#neon)" opacity="0.18"/>
    <path d="M142 234L174 266L232 198" stroke="#D9FFF0" stroke-width="18" stroke-linecap="round" stroke-linejoin="round"/>
  </g>

  <g filter="url(#shadow)">
    <rect x="355" y="400" width="190" height="128" rx="22" fill="#112126" stroke="#264147"/>
    <text x="381" y="434" class="mini">THREAT SCORE</text>
    <text x="381" y="490" class="metric">87</text>
    <text x="381" y="520" class="metric2">SCAM</text>
    <rect x="381" y="545" width="138" height="10" rx="5" fill="#173136"/>
    <rect x="381" y="545" width="116" height="10" rx="5" fill="url(#neon)"/>
  </g>

  <g filter="url(#shadow)">
    <rect x="856" y="398" width="188" height="132" rx="22" fill="#112126" stroke="#264147"/>
    <text x="882" y="434" class="mini">ACTIVE CHANNELS</text>
    <rect x="882" y="454" width="62" height="28" rx="14" fill="#D3FFE8"/><text x="913" y="473" text-anchor="middle" class="channel">SMS</text>
    <rect x="953" y="454" width="74" height="28" rx="14" fill="#D3FFE8"/><text x="990" y="473" text-anchor="middle" class="channel">EMAIL</text>
    <rect x="882" y="492" width="62" height="28" rx="14" fill="#D3FFE8"/><text x="913" y="511" text-anchor="middle" class="channel">URL</text>
    <rect x="953" y="492" width="74" height="28" rx="14" fill="#D3FFE8"/><text x="990" y="511" text-anchor="middle" class="channel">VOICE</text>
  </g>

  <g filter="url(#shadow)">
    <rect x="404" y="585" width="214" height="104" rx="20" fill="#112126" stroke="#264147"/>
    <text x="430" y="619" class="mini">DETECTORS FIRED</text>
    <text x="430" y="663" class="metric2">Text • Credential</text>
    <text x="430" y="688" class="metric2">URL • Voice • Email</text>
  </g>

  <g filter="url(#shadow)">
    <rect x="785" y="585" width="234" height="104" rx="20" fill="#112126" stroke="#264147"/>
    <text x="811" y="619" class="mini">SELF-PROTECTION</text>
    <text x="811" y="661" class="metric2">Shadow Guard On</text>
    <text x="811" y="688" class="small">Prompt injection and leak prevention active</text>
  </g>

  <g>
    <path d="M470 456C548 432 586 390 615 356" stroke="url(#neon)" stroke-width="4" stroke-linecap="round" opacity="0.7"/>
    <path d="M950 462C870 440 824 397 786 357" stroke="url(#neon)" stroke-width="4" stroke-linecap="round" opacity="0.7"/>
    <path d="M560 618C620 603 649 570 669 536" stroke="url(#neon)" stroke-width="4" stroke-linecap="round" opacity="0.55"/>
    <path d="M785 620C735 608 714 572 698 536" stroke="url(#neon)" stroke-width="4" stroke-linecap="round" opacity="0.55"/>
  </g>

  <g opacity="0.95">
    <rect x="610" y="720" width="180" height="42" rx="21" fill="#D2FFE8"/>
    <text x="700" y="747" text-anchor="middle" class="pill">ONE CLEAR DECISION</text>
  </g>
</svg>
